<svg width="1949" height="1945" xmlns="http://www.w3.org/2000/svg" xmlns:xlink="http://www.w3.org/1999/xlink" xml:space="preserve" overflow="hidden"><defs><clipPath id="clip0"><rect x="352" y="206" width="1949" height="1945"/></clipPath></defs><g clip-path="url(#clip0)" transform="translate(-352 -206)"><path d="M352.042 1179.66C347.677 295.024 684.53 213.078 1327 206L1327 1180 352.042 1179.66Z" fill="#D71F07" fill-rule="evenodd"/><path d="M0.0415327 973.665C-4.31832 89.0244 332.189 7.07849 974 0L974 974 0.0415327 973.665Z" fill="#D71F07" fill-rule="evenodd" transform="matrix(-1 0 0 1 2301 206)"/><path d="M2300.96 1177.34C2305.32 2061.98 1968.81 2143.92 1327 2151L1327 1177 2300.96 1177.34Z" fill="#D71F07" fill-rule="evenodd"/><path d="M0.0415753 973.665C-4.32276 89.0243 332.53 7.07849 975 0L975 974 0.0415753 973.665Z" fill="#D71F07" fill-rule="evenodd" transform="matrix(1 0 0 -1 352 2151)"/><path d="M629.42 955 919 956.338 816.008 1402 674.228 1400.66 748.462 1070.76 602 1072.1 629.42 955Z" stroke="#851A2D" stroke-width="13.75" stroke-miterlimit="8" fill="#FFFFFF" fill-rule="evenodd"/><path d="M969 1069 994.426 955 1060 955 1034.57 1069Z" stroke="#851A2D" stroke-width="13.75" stroke-miterlimit="8" fill="#FFFFFF" fill-rule="evenodd"/><path d="M1252.27 955 984 1402 1131.18 1401.33 1366 957.677 1252.27 955Z" stroke="#851A2D" stroke-width="13.75" stroke-miterlimit="8" fill="#FFFFFF" fill-rule="evenodd"/><path d="M1423.18 994 1311.53 1202.53 1314.21 1240.08 1292.81 1238.74 1242 1337.97 1320.22 1338.64 1324.23 1401 1476 1401 1423.18 994Z" stroke="#851A2D" stroke-width="13.75" stroke-miterlimit="8" fill="#FFFFFF" fill-rule="evenodd"/><path d="M1757.98 962 1733.86 969.366 1707.74 979.411 1693.67 989.456 1670.89 1002.18 1657.5 1013.56 1644.77 1023.61 1632.71 1037.67 1625.34 1046.38 1612.62 1061.78 1601.9 1079.19 1591.18 1093.92 1584.48 1110.66 1580.46 1122.71 1570.42 1148.16 1561.71 1170.93 1557.69 1199.72 1557.02 1211.78 1555.01 1237.22 1553 1273.38 1556.35 1300.17 1562.38 1319.59 1568.41 1332.98 1574.44 1345.04 1582.47 1355.08 1593.86 1367.8 1610.61 1381.2 1626.68 1388.56 1638.07 1393.92 1660.18 1400.62 1679.6 1405.97 1698.36 1407.31 1715.78 1408.65 1733.19 1412 1752.62 1410.66 1768.69 1407.31 1781.42 1405.97 1797.5 1405.97 1812.9 1400.62 1833 1392.58 1815.58 1299.5 1792.14 1302.18 1759.99 1300.84 1735.87 1291.46 1718.45 1280.08 1709.75 1266.02 1703.72 1245.26 1702.38 1224.5 1704.39 1207.76 1709.75 1193.7 1714.44 1169.59 1757.98 962Z" stroke="#851A2D" stroke-width="13.75" stroke-miterlimit="8" fill="#FFFFFF" fill-rule="evenodd"/><path d="M1838.15 949 1812 1057 1831.44 1055 1846.19 1054.33 1862.28 1056.33 1876.36 1062.33 1890.44 1069.67 1904.51 1079.67 1910.55 1091.67 1911.89 1105 1909.88 1114.33 1909.88 1116.33 2047.31 1117 2051.33 1103.67 2051.33 1083.67C2051.55 1077.89 2051.78 1072.11 2052 1066.33L2048.65 1049 2040.6 1028.33 2029.88 1012.33 2021.16 997 2003.06 985.667 1987.64 972.333 1976.92 969 1962.84 963.667 1947.42 959.667 1928.65 954.333 1905.85 951.667 1887.75 950.334 1863.62 950.334 1838.15 949Z" stroke="#851A2D" stroke-width="13.75" stroke-miterlimit="8" fill="#FFFFFF" fill-rule="evenodd"/><path d="M1800.39 1151 1779 1242.27 1880.59 1243.61 1907.99 1401.33 1981.52 1402 2041 1153.01 1800.39 1151Z" stroke="#851A2D" stroke-width="13.75" stroke-miterlimit="8" fill="#FFFFFF" fill-rule="evenodd"/></g></svg>